<?xml version="1.0" encoding="UTF-8" standalone="no"?>
<!DOCTYPE svg PUBLIC "-//W3C//DTD SVG 1.1//EN"
 "http://www.w3.org/Graphics/SVG/1.1/DTD/svg11.dtd">
<!-- Generated by graphviz version 2.47.1 (0)
 -->
<!-- Title: snakemake_dag Pages: 1 -->
<svg width="416pt" height="620pt"
 viewBox="0.00 0.00 415.50 620.00" xmlns="http://www.w3.org/2000/svg" xmlns:xlink="http://www.w3.org/1999/xlink">
<g id="graph0" class="graph" transform="scale(1 1) rotate(0) translate(4 616)">
<title>snakemake_dag</title>
<polygon fill="white" stroke="transparent" points="-4,4 -4,-616 411.5,-616 411.5,4 -4,4"/>
<!-- 0 -->
<g id="node1" class="node">
<title>0</title>
<path fill="none" stroke="#d85656" stroke-width="2" d="M275,-36C275,-36 245,-36 245,-36 239,-36 233,-30 233,-24 233,-24 233,-12 233,-12 233,-6 239,0 245,0 245,0 275,0 275,0 281,0 287,-6 287,-12 287,-12 287,-24 287,-24 287,-30 281,-36 275,-36"/>
<text text-anchor="middle" x="260" y="-15.5" font-family="sans" font-size="10.00">all</text>
</g>
<!-- 1 -->
<g id="node2" class="node">
<title>1</title>
<path fill="none" stroke="#568ad8" stroke-width="2" d="M114,-324C114,-324 84,-324 84,-324 78,-324 72,-318 72,-312 72,-312 72,-300 72,-300 72,-294 78,-288 84,-288 84,-288 114,-288 114,-288 120,-288 126,-294 126,-300 126,-300 126,-312 126,-312 126,-318 120,-324 114,-324"/>
<text text-anchor="middle" x="99" y="-303.5" font-family="sans" font-size="10.00">multiqc</text>
</g>
<!-- 1&#45;&gt;0 -->
<g id="edge1" class="edge">
<title>1&#45;&gt;0</title>
<path fill="none" stroke="grey" stroke-width="2" d="M98.3,-287.89C97.66,-257.75 98.92,-193.65 118,-144 132.07,-107.4 140.07,-98.47 169,-72 185.2,-57.18 206.22,-44.61 223.98,-35.43"/>
<polygon fill="grey" stroke="grey" stroke-width="2" points="225.55,-38.55 232.92,-30.94 222.41,-32.29 225.55,-38.55"/>
</g>
<!-- 2 -->
<g id="node3" class="node">
<title>2</title>
<path fill="none" stroke="#88d856" stroke-width="2" d="M186,-396C186,-396 156,-396 156,-396 150,-396 144,-390 144,-384 144,-384 144,-372 144,-372 144,-366 150,-360 156,-360 156,-360 186,-360 186,-360 192,-360 198,-366 198,-372 198,-372 198,-384 198,-384 198,-390 192,-396 186,-396"/>
<text text-anchor="middle" x="171" y="-375.5" font-family="sans" font-size="10.00">fastqc</text>
</g>
<!-- 2&#45;&gt;1 -->
<g id="edge5" class="edge">
<title>2&#45;&gt;1</title>
<path fill="none" stroke="grey" stroke-width="2" d="M153.2,-359.7C144.4,-351.14 133.62,-340.66 124,-331.3"/>
<polygon fill="grey" stroke="grey" stroke-width="2" points="126.2,-328.57 116.59,-324.1 121.32,-333.58 126.2,-328.57"/>
</g>
<!-- 3 -->
<g id="node4" class="node">
<title>3</title>
<path fill="none" stroke="#56d8d8" stroke-width="2" d="M204.5,-468C204.5,-468 155.5,-468 155.5,-468 149.5,-468 143.5,-462 143.5,-456 143.5,-456 143.5,-444 143.5,-444 143.5,-438 149.5,-432 155.5,-432 155.5,-432 204.5,-432 204.5,-432 210.5,-432 216.5,-438 216.5,-444 216.5,-444 216.5,-456 216.5,-456 216.5,-462 210.5,-468 204.5,-468"/>
<text text-anchor="middle" x="180" y="-447.5" font-family="sans" font-size="10.00">get_fastq_se</text>
</g>
<!-- 3&#45;&gt;2 -->
<g id="edge8" class="edge">
<title>3&#45;&gt;2</title>
<path fill="none" stroke="grey" stroke-width="2" d="M177.78,-431.7C176.78,-423.98 175.59,-414.71 174.49,-406.11"/>
<polygon fill="grey" stroke="grey" stroke-width="2" points="177.95,-405.58 173.2,-396.1 171,-406.47 177.95,-405.58"/>
</g>
<!-- 8 -->
<g id="node9" class="node">
<title>8</title>
<path fill="none" stroke="#56d873" stroke-width="2" d="M280,-396C280,-396 228,-396 228,-396 222,-396 216,-390 216,-384 216,-384 216,-372 216,-372 216,-366 222,-360 228,-360 228,-360 280,-360 280,-360 286,-360 292,-366 292,-372 292,-372 292,-384 292,-384 292,-390 286,-396 280,-396"/>
<text text-anchor="middle" x="254" y="-375.5" font-family="sans" font-size="10.00">bowtie2_align</text>
</g>
<!-- 3&#45;&gt;8 -->
<g id="edge12" class="edge">
<title>3&#45;&gt;8</title>
<path fill="none" stroke="grey" stroke-width="2" d="M198.29,-431.7C207.43,-423.05 218.64,-412.45 228.6,-403.03"/>
<polygon fill="grey" stroke="grey" stroke-width="2" points="231.06,-405.52 235.92,-396.1 226.25,-400.43 231.06,-405.52"/>
</g>
<!-- 4 -->
<g id="node5" class="node">
<title>4</title>
<path fill="none" stroke="#59d856" stroke-width="2" d="M114,-396C114,-396 84,-396 84,-396 78,-396 72,-390 72,-384 72,-384 72,-372 72,-372 72,-366 78,-360 84,-360 84,-360 114,-360 114,-360 120,-360 126,-366 126,-372 126,-372 126,-384 126,-384 126,-390 120,-396 114,-396"/>
<text text-anchor="middle" x="99" y="-375.5" font-family="sans" font-size="10.00">fastqc_1</text>
</g>
<!-- 4&#45;&gt;1 -->
<g id="edge7" class="edge">
<title>4&#45;&gt;1</title>
<path fill="none" stroke="grey" stroke-width="2" d="M99,-359.7C99,-351.98 99,-342.71 99,-334.11"/>
<polygon fill="grey" stroke="grey" stroke-width="2" points="102.5,-334.1 99,-324.1 95.5,-334.1 102.5,-334.1"/>
</g>
<!-- 5 -->
<g id="node6" class="node">
<title>5</title>
<path fill="none" stroke="#d8a456" stroke-width="2" d="M113.5,-468C113.5,-468 64.5,-468 64.5,-468 58.5,-468 52.5,-462 52.5,-456 52.5,-456 52.5,-444 52.5,-444 52.5,-438 58.5,-432 64.5,-432 64.5,-432 113.5,-432 113.5,-432 119.5,-432 125.5,-438 125.5,-444 125.5,-444 125.5,-456 125.5,-456 125.5,-462 119.5,-468 113.5,-468"/>
<text text-anchor="middle" x="89" y="-447.5" font-family="sans" font-size="10.00">get_fastq_pe</text>
</g>
<!-- 5&#45;&gt;4 -->
<g id="edge9" class="edge">
<title>5&#45;&gt;4</title>
<path fill="none" stroke="grey" stroke-width="2" d="M91.47,-431.7C92.57,-423.98 93.9,-414.71 95.13,-406.11"/>
<polygon fill="grey" stroke="grey" stroke-width="2" points="98.61,-406.5 96.56,-396.1 91.68,-405.51 98.61,-406.5"/>
</g>
<!-- 6 -->
<g id="node7" class="node">
<title>6</title>
<path fill="none" stroke="#d88d56" stroke-width="2" d="M42,-396C42,-396 12,-396 12,-396 6,-396 0,-390 0,-384 0,-384 0,-372 0,-372 0,-366 6,-360 12,-360 12,-360 42,-360 42,-360 48,-360 54,-366 54,-372 54,-372 54,-384 54,-384 54,-390 48,-396 42,-396"/>
<text text-anchor="middle" x="27" y="-375.5" font-family="sans" font-size="10.00">fastqc_2</text>
</g>
<!-- 5&#45;&gt;6 -->
<g id="edge10" class="edge">
<title>5&#45;&gt;6</title>
<path fill="none" stroke="grey" stroke-width="2" d="M73.67,-431.7C66.24,-423.3 57.18,-413.07 49.02,-403.86"/>
<polygon fill="grey" stroke="grey" stroke-width="2" points="51.4,-401.27 42.15,-396.1 46.16,-405.91 51.4,-401.27"/>
</g>
<!-- 5&#45;&gt;8 -->
<g id="edge14" class="edge">
<title>5&#45;&gt;8</title>
<path fill="none" stroke="grey" stroke-width="2" d="M125.62,-433.46C149.46,-423.35 180.81,-410.05 206.55,-399.13"/>
<polygon fill="grey" stroke="grey" stroke-width="2" points="207.92,-402.35 215.76,-395.22 205.19,-395.91 207.92,-402.35"/>
</g>
<!-- 6&#45;&gt;1 -->
<g id="edge6" class="edge">
<title>6&#45;&gt;1</title>
<path fill="none" stroke="grey" stroke-width="2" d="M44.8,-359.7C53.6,-351.14 64.38,-340.66 74,-331.3"/>
<polygon fill="grey" stroke="grey" stroke-width="2" points="76.68,-333.58 81.41,-324.1 71.8,-328.57 76.68,-333.58"/>
</g>
<!-- 7 -->
<g id="node8" class="node">
<title>7</title>
<path fill="none" stroke="#70d856" stroke-width="2" d="M395.5,-252C395.5,-252 332.5,-252 332.5,-252 326.5,-252 320.5,-246 320.5,-240 320.5,-240 320.5,-228 320.5,-228 320.5,-222 326.5,-216 332.5,-216 332.5,-216 395.5,-216 395.5,-216 401.5,-216 407.5,-222 407.5,-228 407.5,-228 407.5,-240 407.5,-240 407.5,-246 401.5,-252 395.5,-252"/>
<text text-anchor="middle" x="364" y="-231.5" font-family="sans" font-size="10.00">multiqc_bowtie2</text>
</g>
<!-- 7&#45;&gt;0 -->
<g id="edge3" class="edge">
<title>7&#45;&gt;0</title>
<path fill="none" stroke="grey" stroke-width="2" d="M365.6,-215.95C367.65,-184.76 368.02,-117.57 339,-72 328.77,-55.93 311.72,-43.58 296.07,-34.86"/>
<polygon fill="grey" stroke="grey" stroke-width="2" points="297.56,-31.69 287.08,-30.15 294.31,-37.89 297.56,-31.69"/>
</g>
<!-- 8&#45;&gt;7 -->
<g id="edge11" class="edge">
<title>8&#45;&gt;7</title>
<path fill="none" stroke="grey" stroke-width="2" d="M272.74,-359.68C283.07,-349.7 295.83,-336.66 306,-324 322.2,-303.83 338.07,-279.03 349.1,-260.74"/>
<polygon fill="grey" stroke="grey" stroke-width="2" points="352.14,-262.47 354.25,-252.09 346.13,-258.89 352.14,-262.47"/>
</g>
<!-- 14 -->
<g id="node15" class="node">
<title>14</title>
<path fill="none" stroke="#56d8a2" stroke-width="2" d="M284.5,-324C284.5,-324 219.5,-324 219.5,-324 213.5,-324 207.5,-318 207.5,-312 207.5,-312 207.5,-300 207.5,-300 207.5,-294 213.5,-288 219.5,-288 219.5,-288 284.5,-288 284.5,-288 290.5,-288 296.5,-294 296.5,-300 296.5,-300 296.5,-312 296.5,-312 296.5,-318 290.5,-324 284.5,-324"/>
<text text-anchor="middle" x="252" y="-303.5" font-family="sans" font-size="10.00">samtools_merge</text>
</g>
<!-- 8&#45;&gt;14 -->
<g id="edge20" class="edge">
<title>8&#45;&gt;14</title>
<path fill="none" stroke="grey" stroke-width="2" d="M253.51,-359.7C253.29,-351.98 253.02,-342.71 252.77,-334.11"/>
<polygon fill="grey" stroke="grey" stroke-width="2" points="256.27,-334 252.49,-324.1 249.28,-334.2 256.27,-334"/>
</g>
<!-- 9 -->
<g id="node10" class="node">
<title>9</title>
<path fill="none" stroke="#56d8c1" stroke-width="2" d="M299,-468C299,-468 247,-468 247,-468 241,-468 235,-462 235,-456 235,-456 235,-444 235,-444 235,-438 241,-432 247,-432 247,-432 299,-432 299,-432 305,-432 311,-438 311,-444 311,-444 311,-456 311,-456 311,-462 305,-468 299,-468"/>
<text text-anchor="middle" x="273" y="-447.5" font-family="sans" font-size="10.00">bowtie2_build</text>
</g>
<!-- 9&#45;&gt;8 -->
<g id="edge13" class="edge">
<title>9&#45;&gt;8</title>
<path fill="none" stroke="grey" stroke-width="2" d="M268.3,-431.7C266.19,-423.9 263.64,-414.51 261.28,-405.83"/>
<polygon fill="grey" stroke="grey" stroke-width="2" points="264.64,-404.84 258.64,-396.1 257.88,-406.67 264.64,-404.84"/>
</g>
<!-- 10 -->
<g id="node11" class="node">
<title>10</title>
<path fill="none" stroke="#56a2d8" stroke-width="2" d="M323.5,-540C323.5,-540 222.5,-540 222.5,-540 216.5,-540 210.5,-534 210.5,-528 210.5,-528 210.5,-516 210.5,-516 210.5,-510 216.5,-504 222.5,-504 222.5,-504 323.5,-504 323.5,-504 329.5,-504 335.5,-510 335.5,-516 335.5,-516 335.5,-528 335.5,-528 335.5,-534 329.5,-540 323.5,-540"/>
<text text-anchor="middle" x="273" y="-519.5" font-family="sans" font-size="10.00">unzip_reference_genome</text>
</g>
<!-- 10&#45;&gt;9 -->
<g id="edge15" class="edge">
<title>10&#45;&gt;9</title>
<path fill="none" stroke="grey" stroke-width="2" d="M273,-503.7C273,-495.98 273,-486.71 273,-478.11"/>
<polygon fill="grey" stroke="grey" stroke-width="2" points="276.5,-478.1 273,-468.1 269.5,-478.1 276.5,-478.1"/>
</g>
<!-- 11 -->
<g id="node12" class="node">
<title>11</title>
<path fill="none" stroke="#5673d8" stroke-width="2" d="M332.5,-612C332.5,-612 213.5,-612 213.5,-612 207.5,-612 201.5,-606 201.5,-600 201.5,-600 201.5,-588 201.5,-588 201.5,-582 207.5,-576 213.5,-576 213.5,-576 332.5,-576 332.5,-576 338.5,-576 344.5,-582 344.5,-588 344.5,-588 344.5,-600 344.5,-600 344.5,-606 338.5,-612 332.5,-612"/>
<text text-anchor="middle" x="273" y="-591.5" font-family="sans" font-size="10.00">download_reference_genome</text>
</g>
<!-- 11&#45;&gt;10 -->
<g id="edge16" class="edge">
<title>11&#45;&gt;10</title>
<path fill="none" stroke="grey" stroke-width="2" d="M273,-575.7C273,-567.98 273,-558.71 273,-550.11"/>
<polygon fill="grey" stroke="grey" stroke-width="2" points="276.5,-550.1 273,-540.1 269.5,-550.1 276.5,-550.1"/>
</g>
<!-- 12 -->
<g id="node13" class="node">
<title>12</title>
<path fill="none" stroke="#bed856" stroke-width="2" d="M246,-108C246,-108 190,-108 190,-108 184,-108 178,-102 178,-96 178,-96 178,-84 178,-84 178,-78 184,-72 190,-72 190,-72 246,-72 246,-72 252,-72 258,-78 258,-84 258,-84 258,-96 258,-96 258,-102 252,-108 246,-108"/>
<text text-anchor="middle" x="218" y="-87.5" font-family="sans" font-size="10.00">bam_coverage</text>
</g>
<!-- 12&#45;&gt;0 -->
<g id="edge4" class="edge">
<title>12&#45;&gt;0</title>
<path fill="none" stroke="grey" stroke-width="2" d="M228.38,-71.7C233.26,-63.56 239.19,-53.69 244.58,-44.7"/>
<polygon fill="grey" stroke="grey" stroke-width="2" points="247.59,-46.48 249.74,-36.1 241.59,-42.88 247.59,-46.48"/>
</g>
<!-- 13 -->
<g id="node14" class="node">
<title>13</title>
<path fill="none" stroke="#56c1d8" stroke-width="2" d="M290,-252C290,-252 212,-252 212,-252 206,-252 200,-246 200,-240 200,-240 200,-228 200,-228 200,-222 206,-216 212,-216 212,-216 290,-216 290,-216 296,-216 302,-222 302,-228 302,-228 302,-240 302,-240 302,-246 296,-252 290,-252"/>
<text text-anchor="middle" x="251" y="-231.5" font-family="sans" font-size="10.00">samtools_sort_bam</text>
</g>
<!-- 13&#45;&gt;12 -->
<g id="edge17" class="edge">
<title>13&#45;&gt;12</title>
<path fill="none" stroke="grey" stroke-width="2" d="M251.86,-215.93C252.31,-197.76 251.71,-168.33 245,-144 242.49,-134.89 238.32,-125.51 234,-117.23"/>
<polygon fill="grey" stroke="grey" stroke-width="2" points="237.03,-115.49 229.14,-108.42 230.9,-118.86 237.03,-115.49"/>
</g>
<!-- 15 -->
<g id="node16" class="node">
<title>15</title>
<path fill="none" stroke="#d8bc56" stroke-width="2" d="M224.5,-180C224.5,-180 139.5,-180 139.5,-180 133.5,-180 127.5,-174 127.5,-168 127.5,-168 127.5,-156 127.5,-156 127.5,-150 133.5,-144 139.5,-144 139.5,-144 224.5,-144 224.5,-144 230.5,-144 236.5,-150 236.5,-156 236.5,-156 236.5,-168 236.5,-168 236.5,-174 230.5,-180 224.5,-180"/>
<text text-anchor="middle" x="182" y="-159.5" font-family="sans" font-size="10.00">samtools_index_bam</text>
</g>
<!-- 13&#45;&gt;15 -->
<g id="edge21" class="edge">
<title>13&#45;&gt;15</title>
<path fill="none" stroke="grey" stroke-width="2" d="M233.94,-215.7C225.5,-207.14 215.18,-196.66 205.96,-187.3"/>
<polygon fill="grey" stroke="grey" stroke-width="2" points="208.37,-184.77 198.86,-180.1 203.39,-189.68 208.37,-184.77"/>
</g>
<!-- 16 -->
<g id="node17" class="node">
<title>16</title>
<path fill="none" stroke="#a7d856" stroke-width="2" d="M318,-108C318,-108 288,-108 288,-108 282,-108 276,-102 276,-96 276,-96 276,-84 276,-84 276,-78 282,-72 288,-72 288,-72 318,-72 318,-72 324,-72 330,-78 330,-84 330,-84 330,-96 330,-96 330,-102 324,-108 318,-108"/>
<text text-anchor="middle" x="303" y="-87.5" font-family="sans" font-size="10.00">macs2</text>
</g>
<!-- 13&#45;&gt;16 -->
<g id="edge22" class="edge">
<title>13&#45;&gt;16</title>
<path fill="none" stroke="grey" stroke-width="2" d="M257.27,-215.87C266.21,-191.46 282.7,-146.43 293.25,-117.64"/>
<polygon fill="grey" stroke="grey" stroke-width="2" points="296.55,-118.78 296.71,-108.19 289.98,-116.38 296.55,-118.78"/>
</g>
<!-- 14&#45;&gt;13 -->
<g id="edge19" class="edge">
<title>14&#45;&gt;13</title>
<path fill="none" stroke="grey" stroke-width="2" d="M251.75,-287.7C251.64,-279.98 251.51,-270.71 251.39,-262.11"/>
<polygon fill="grey" stroke="grey" stroke-width="2" points="254.89,-262.05 251.24,-252.1 247.89,-262.15 254.89,-262.05"/>
</g>
<!-- 15&#45;&gt;12 -->
<g id="edge18" class="edge">
<title>15&#45;&gt;12</title>
<path fill="none" stroke="grey" stroke-width="2" d="M190.9,-143.7C195,-135.73 199.95,-126.1 204.49,-117.26"/>
<polygon fill="grey" stroke="grey" stroke-width="2" points="207.74,-118.6 209.2,-108.1 201.52,-115.4 207.74,-118.6"/>
</g>
<!-- 16&#45;&gt;0 -->
<g id="edge2" class="edge">
<title>16&#45;&gt;0</title>
<path fill="none" stroke="grey" stroke-width="2" d="M292.37,-71.7C287.37,-63.56 281.31,-53.69 275.79,-44.7"/>
<polygon fill="grey" stroke="grey" stroke-width="2" points="278.72,-42.79 270.51,-36.1 272.76,-46.46 278.72,-42.79"/>
</g>
</g>
</svg>
